<mxfile host="app.diagrams.net" modified="2024-02-07T18:39:39.572Z" agent="Mozilla/5.0 (Windows NT 10.0; Win64; x64) AppleWebKit/537.36 (KHTML, like Gecko) Chrome/121.0.0.0 Safari/537.36" etag="mhEDGziczDOaJunURWM3" version="22.1.21" type="github">
  <diagram name="Page-1" id="52a04d89-c75d-2922-d76d-85b35f80e030">
    <mxGraphModel dx="635" dy="363" grid="1" gridSize="10" guides="1" tooltips="1" connect="1" arrows="1" fold="1" page="1" pageScale="1" pageWidth="1100" pageHeight="850" background="none" math="0" shadow="0">
      <root>
        <mxCell id="0" />
        <mxCell id="1" parent="0" />
        <mxCell id="WopC4PYd7FhQynQ7huu4-2" value="1" style="swimlane;html=1;fontStyle=0;childLayout=stackLayout;horizontal=1;startSize=26;fillColor=#e0e0e0;horizontalStack=0;resizeParent=1;resizeLast=0;collapsible=1;marginBottom=0;swimlaneFillColor=#ffffff;align=center;rounded=1;shadow=0;comic=0;labelBackgroundColor=none;strokeWidth=1;fontFamily=Verdana;fontSize=12" vertex="1" parent="1">
          <mxGeometry x="396" y="40" width="140" height="130" as="geometry" />
        </mxCell>
        <mxCell id="WopC4PYd7FhQynQ7huu4-3" value="issue&lt;br style=&quot;font-size: 16px;&quot;&gt;items" style="text;html=1;strokeColor=none;fillColor=none;spacingLeft=4;spacingRight=4;whiteSpace=wrap;overflow=hidden;rotatable=0;points=[[0,0.5],[1,0.5]];portConstraint=eastwest;align=center;verticalAlign=middle;fontSize=16;" vertex="1" parent="WopC4PYd7FhQynQ7huu4-2">
          <mxGeometry y="26" width="140" height="104" as="geometry" />
        </mxCell>
        <mxCell id="WopC4PYd7FhQynQ7huu4-4" value="Employees" style="shape=cube;whiteSpace=wrap;html=1;boundedLbl=1;backgroundOutline=1;darkOpacity=0.05;darkOpacity2=0.1;size=10;" vertex="1" parent="1">
          <mxGeometry x="150" y="60" width="120" height="90" as="geometry" />
        </mxCell>
        <mxCell id="WopC4PYd7FhQynQ7huu4-5" value="store clerk" style="shape=cube;whiteSpace=wrap;html=1;boundedLbl=1;backgroundOutline=1;darkOpacity=0.05;darkOpacity2=0.1;size=10;" vertex="1" parent="1">
          <mxGeometry x="660" y="60" width="120" height="90" as="geometry" />
        </mxCell>
        <mxCell id="WopC4PYd7FhQynQ7huu4-6" value="supplier" style="shape=cube;whiteSpace=wrap;html=1;boundedLbl=1;backgroundOutline=1;darkOpacity=0.05;darkOpacity2=0.1;size=10;" vertex="1" parent="1">
          <mxGeometry x="600" y="270" width="120" height="90" as="geometry" />
        </mxCell>
        <mxCell id="WopC4PYd7FhQynQ7huu4-7" value="warehouse manager" style="shape=cube;whiteSpace=wrap;html=1;boundedLbl=1;backgroundOutline=1;darkOpacity=0.05;darkOpacity2=0.1;size=10;" vertex="1" parent="1">
          <mxGeometry x="610" y="425" width="120" height="90" as="geometry" />
        </mxCell>
        <mxCell id="WopC4PYd7FhQynQ7huu4-32" value="" style="edgeStyle=none;noEdgeStyle=1;strokeColor=#990000;strokeWidth=2;entryX=0;entryY=0.5;entryDx=0;entryDy=0;exitX=1.017;exitY=0.652;exitDx=0;exitDy=0;exitPerimeter=0;" edge="1" parent="1" source="WopC4PYd7FhQynQ7huu4-4" target="WopC4PYd7FhQynQ7huu4-3">
          <mxGeometry width="100" height="100" relative="1" as="geometry">
            <mxPoint x="290" y="118" as="sourcePoint" />
            <mxPoint x="320" y="120" as="targetPoint" />
          </mxGeometry>
        </mxCell>
        <mxCell id="WopC4PYd7FhQynQ7huu4-33" value="supply&#xa;requisitions" style="text;spacingTop=-5;align=center" vertex="1" parent="1">
          <mxGeometry x="320" y="80" width="30" height="20" as="geometry" />
        </mxCell>
        <mxCell id="WopC4PYd7FhQynQ7huu4-34" value="" style="edgeStyle=none;noEdgeStyle=1;strokeColor=#990000;strokeWidth=2;exitX=0.808;exitY=1.004;exitDx=0;exitDy=0;exitPerimeter=0;entryX=0.153;entryY=-0.017;entryDx=0;entryDy=0;entryPerimeter=0;" edge="1" parent="1" source="WopC4PYd7FhQynQ7huu4-5" target="WopC4PYd7FhQynQ7huu4-53">
          <mxGeometry width="100" height="100" relative="1" as="geometry">
            <mxPoint x="680" y="270" as="sourcePoint" />
            <mxPoint x="757" y="230" as="targetPoint" />
          </mxGeometry>
        </mxCell>
        <mxCell id="WopC4PYd7FhQynQ7huu4-35" value="requisitions&#xa;copy" style="text;spacingTop=-5;align=center" vertex="1" parent="1">
          <mxGeometry x="780" y="170" width="30" height="20" as="geometry" />
        </mxCell>
        <mxCell id="WopC4PYd7FhQynQ7huu4-36" value="" style="edgeStyle=none;noEdgeStyle=1;strokeColor=#990000;strokeWidth=2;entryX=1;entryY=0.5;entryDx=0;entryDy=0;exitX=-0.023;exitY=0.639;exitDx=0;exitDy=0;exitPerimeter=0;" edge="1" parent="1" source="WopC4PYd7FhQynQ7huu4-5" target="WopC4PYd7FhQynQ7huu4-3">
          <mxGeometry width="100" height="100" relative="1" as="geometry">
            <mxPoint x="570" y="160" as="sourcePoint" />
            <mxPoint x="650" y="160" as="targetPoint" />
          </mxGeometry>
        </mxCell>
        <mxCell id="WopC4PYd7FhQynQ7huu4-37" value="Inventory &#xa;records" style="text;spacingTop=-5;align=center" vertex="1" parent="1">
          <mxGeometry x="591" y="80" width="30" height="20" as="geometry" />
        </mxCell>
        <mxCell id="WopC4PYd7FhQynQ7huu4-38" value="" style="edgeStyle=none;noEdgeStyle=1;strokeColor=#990000;strokeWidth=2;entryX=0.766;entryY=-0.005;entryDx=0;entryDy=0;entryPerimeter=0;exitX=0.266;exitY=1.06;exitDx=0;exitDy=0;exitPerimeter=0;" edge="1" parent="1" source="WopC4PYd7FhQynQ7huu4-5" target="WopC4PYd7FhQynQ7huu4-6">
          <mxGeometry width="100" height="100" relative="1" as="geometry">
            <mxPoint x="280" y="320" as="sourcePoint" />
            <mxPoint x="360" y="320" as="targetPoint" />
          </mxGeometry>
        </mxCell>
        <mxCell id="WopC4PYd7FhQynQ7huu4-42" value="" style="edgeStyle=none;noEdgeStyle=1;strokeColor=#990000;strokeWidth=2;entryX=1;entryY=1;entryDx=0;entryDy=0;entryPerimeter=0;exitX=-0.012;exitY=0.788;exitDx=0;exitDy=0;exitPerimeter=0;" edge="1" parent="1" source="WopC4PYd7FhQynQ7huu4-3" target="WopC4PYd7FhQynQ7huu4-4">
          <mxGeometry width="100" height="100" relative="1" as="geometry">
            <mxPoint x="290" y="189.2" as="sourcePoint" />
            <mxPoint x="370" y="189.2" as="targetPoint" />
          </mxGeometry>
        </mxCell>
        <mxCell id="WopC4PYd7FhQynQ7huu4-43" value="stock&#xa;items" style="text;spacingTop=-5;align=center" vertex="1" parent="1">
          <mxGeometry x="320" y="119.99999999999999" width="30" height="20" as="geometry" />
        </mxCell>
        <mxCell id="WopC4PYd7FhQynQ7huu4-44" value="" style="edgeStyle=none;noEdgeStyle=1;strokeColor=#990000;strokeWidth=2" edge="1" parent="1">
          <mxGeometry width="100" height="100" relative="1" as="geometry">
            <mxPoint x="814" y="400" as="sourcePoint" />
            <mxPoint x="894" y="400" as="targetPoint" />
          </mxGeometry>
        </mxCell>
        <mxCell id="WopC4PYd7FhQynQ7huu4-45" value="purchase&#xa;orders" style="text;spacingTop=-5;align=center" vertex="1" parent="1">
          <mxGeometry x="835" y="370" width="30" height="20" as="geometry" />
        </mxCell>
        <mxCell id="WopC4PYd7FhQynQ7huu4-46" value="" style="edgeStyle=none;noEdgeStyle=1;strokeColor=#990000;strokeWidth=2" edge="1" parent="1">
          <mxGeometry width="100" height="100" relative="1" as="geometry">
            <mxPoint x="895" y="400" as="sourcePoint" />
            <mxPoint x="975" y="400" as="targetPoint" />
          </mxGeometry>
        </mxCell>
        <mxCell id="WopC4PYd7FhQynQ7huu4-47" value="new inventory&#xa;items" style="text;spacingTop=-5;align=center" vertex="1" parent="1">
          <mxGeometry x="916" y="370" width="30" height="20" as="geometry" />
        </mxCell>
        <mxCell id="WopC4PYd7FhQynQ7huu4-48" value="" style="edgeStyle=none;noEdgeStyle=1;strokeColor=#990000;strokeWidth=2" edge="1" parent="1">
          <mxGeometry width="100" height="100" relative="1" as="geometry">
            <mxPoint x="979" y="400" as="sourcePoint" />
            <mxPoint x="1059" y="400" as="targetPoint" />
          </mxGeometry>
        </mxCell>
        <mxCell id="WopC4PYd7FhQynQ7huu4-49" value="daily receiving&#xa;report" style="text;spacingTop=-5;align=center" vertex="1" parent="1">
          <mxGeometry x="1000" y="370" width="30" height="20" as="geometry" />
        </mxCell>
        <mxCell id="WopC4PYd7FhQynQ7huu4-50" value="" style="edgeStyle=none;noEdgeStyle=1;strokeColor=#990000;strokeWidth=2" edge="1" parent="1">
          <mxGeometry width="100" height="100" relative="1" as="geometry">
            <mxPoint x="1063" y="400" as="sourcePoint" />
            <mxPoint x="1143" y="400" as="targetPoint" />
          </mxGeometry>
        </mxCell>
        <mxCell id="WopC4PYd7FhQynQ7huu4-51" value="daily issue&#xa;report" style="text;spacingTop=-5;align=center" vertex="1" parent="1">
          <mxGeometry x="1084" y="370" width="30" height="20" as="geometry" />
        </mxCell>
        <mxCell id="WopC4PYd7FhQynQ7huu4-52" value="employees" style="html=1;dashed=0;whiteSpace=wrap;shape=partialRectangle;right=0;" vertex="1" parent="1">
          <mxGeometry x="160" y="204.2" width="100" height="30" as="geometry" />
        </mxCell>
        <mxCell id="WopC4PYd7FhQynQ7huu4-53" value="store clerk" style="html=1;dashed=0;whiteSpace=wrap;shape=partialRectangle;right=0;" vertex="1" parent="1">
          <mxGeometry x="741" y="220" width="100" height="30" as="geometry" />
        </mxCell>
        <mxCell id="WopC4PYd7FhQynQ7huu4-54" value="supplier" style="html=1;dashed=0;whiteSpace=wrap;shape=partialRectangle;right=0;" vertex="1" parent="1">
          <mxGeometry x="800" y="280" width="100" height="30" as="geometry" />
        </mxCell>
        <mxCell id="WopC4PYd7FhQynQ7huu4-55" value="warehouse manager" style="html=1;dashed=0;whiteSpace=wrap;shape=partialRectangle;right=0;" vertex="1" parent="1">
          <mxGeometry x="1059" y="445.77" width="100" height="30" as="geometry" />
        </mxCell>
        <mxCell id="WopC4PYd7FhQynQ7huu4-59" value="2" style="swimlane;html=1;fontStyle=0;childLayout=stackLayout;horizontal=1;startSize=26;fillColor=#e0e0e0;horizontalStack=0;resizeParent=1;resizeLast=0;collapsible=1;marginBottom=0;swimlaneFillColor=#ffffff;align=center;rounded=1;shadow=0;comic=0;labelBackgroundColor=none;strokeWidth=1;fontFamily=Verdana;fontSize=12" vertex="1" parent="1">
          <mxGeometry x="396" y="270" width="140" height="130" as="geometry" />
        </mxCell>
        <mxCell id="WopC4PYd7FhQynQ7huu4-60" value="items&lt;br&gt;supply" style="text;html=1;strokeColor=none;fillColor=none;spacingLeft=4;spacingRight=4;whiteSpace=wrap;overflow=hidden;rotatable=0;points=[[0,0.5],[1,0.5]];portConstraint=eastwest;align=center;verticalAlign=middle;fontSize=16;" vertex="1" parent="WopC4PYd7FhQynQ7huu4-59">
          <mxGeometry y="26" width="140" height="104" as="geometry" />
        </mxCell>
        <mxCell id="WopC4PYd7FhQynQ7huu4-61" value="" style="edgeStyle=none;noEdgeStyle=1;strokeColor=#990000;strokeWidth=2;entryX=0.605;entryY=-0.044;entryDx=0;entryDy=0;entryPerimeter=0;exitX=0.596;exitY=1.048;exitDx=0;exitDy=0;exitPerimeter=0;" edge="1" parent="1" source="WopC4PYd7FhQynQ7huu4-4" target="WopC4PYd7FhQynQ7huu4-52">
          <mxGeometry width="100" height="100" relative="1" as="geometry">
            <mxPoint x="404" y="158" as="sourcePoint" />
            <mxPoint x="280" y="160" as="targetPoint" />
          </mxGeometry>
        </mxCell>
        <mxCell id="WopC4PYd7FhQynQ7huu4-62" value="items&#xa;reords" style="text;spacingTop=-5;align=center" vertex="1" parent="1">
          <mxGeometry x="180" y="160" width="30" height="20" as="geometry" />
        </mxCell>
        <mxCell id="WopC4PYd7FhQynQ7huu4-63" value="" style="edgeStyle=none;noEdgeStyle=1;strokeColor=#990000;strokeWidth=2;entryX=0;entryY=0.5;entryDx=0;entryDy=0;exitX=1.011;exitY=0.279;exitDx=0;exitDy=0;exitPerimeter=0;" edge="1" parent="1" source="WopC4PYd7FhQynQ7huu4-6" target="WopC4PYd7FhQynQ7huu4-54">
          <mxGeometry width="100" height="100" relative="1" as="geometry">
            <mxPoint x="720" y="294.6" as="sourcePoint" />
            <mxPoint x="800" y="294.6" as="targetPoint" />
          </mxGeometry>
        </mxCell>
        <mxCell id="WopC4PYd7FhQynQ7huu4-64" value="backorder &#xa;notice" style="text;spacingTop=-5;align=center" vertex="1" parent="1">
          <mxGeometry x="740" y="260" width="30" height="20" as="geometry" />
        </mxCell>
        <mxCell id="WopC4PYd7FhQynQ7huu4-65" value="backorder &#xa;request" style="text;spacingTop=-5;align=center" vertex="1" parent="1">
          <mxGeometry x="645" y="194.2" width="30" height="10" as="geometry" />
        </mxCell>
      </root>
    </mxGraphModel>
  </diagram>
</mxfile>
